<svg xmlns="http://www.w3.org/2000/svg" xmlns:xlink="http://www.w3.org/1999/xlink" width="48" zoomAndPan="magnify" viewBox="0 0 36 36.000001" height="48" preserveAspectRatio="xMidYMid meet" version="1.0"><defs><clipPath id="1ffdd1398f"><path d="M 0.488281 0 L 35.511719 0 L 35.511719 35.027344 L 0.488281 35.027344 Z M 0.488281 0 " clip-rule="nonzero"/></clipPath></defs><g clip-path="url(#1ffdd1398f)"><path fill="#ffffff" d="M 0.488281 0 L 35.511719 0 L 35.511719 35.027344 L 0.488281 35.027344 Z M 0.488281 0 " fill-opacity="1" fill-rule="nonzero"/><path fill="#ffffff" d="M 0.488281 0 L 35.511719 0 L 35.511719 35.027344 L 0.488281 35.027344 Z M 0.488281 0 " fill-opacity="1" fill-rule="nonzero"/><path fill="#353434" d="M 35.519531 17.519531 C 35.519531 27.191406 27.679688 35.035156 18.007812 35.035156 C 8.332031 35.035156 0.492188 27.191406 0.492188 17.519531 C 0.492188 7.847656 8.332031 0.00390625 18.007812 0.00390625 C 27.679688 0.00390625 35.519531 7.847656 35.519531 17.519531 " fill-opacity="1" fill-rule="nonzero"/></g><path fill="#ed2023" d="M 20.308594 10.542969 L 20.085938 10.488281 L 19.132812 11.757812 L 19.042969 10.355469 L 17.6875 9.972656 L 19.128906 9.308594 L 19.121094 9.078125 L 19.082031 7.933594 L 19.957031 9.011719 L 21.261719 8.558594 L 20.546875 9.742188 L 21.421875 10.820312 L 20.308594 10.542969 M 20.738281 16.921875 L 19.804688 16.257812 L 19.617188 16.125 L 18.265625 16.953125 L 18.699219 15.617188 L 17.578125 14.765625 L 19.160156 14.675781 L 19.238281 14.457031 L 19.625 13.378906 L 20.039062 14.703125 L 21.421875 14.761719 L 20.320312 15.597656 L 20.738281 16.921875 M 17.304688 21.34375 L 16.460938 20.566406 L 16.292969 20.410156 L 14.847656 21.0625 L 15.449219 19.789062 L 14.445312 18.800781 L 16.027344 18.914062 L 16.132812 18.710938 L 16.652344 17.6875 L 16.894531 19.054688 L 18.257812 19.289062 L 17.0625 19.976562 L 17.304688 21.34375 M 11.191406 17.109375 L 8.285156 15.046875 L 5.378906 17.109375 L 6.359375 13.210938 L 5.894531 12.863281 L 3.578125 11.109375 L 7.09375 11.109375 L 8.285156 7.820312 L 9.472656 11.109375 L 12.988281 11.109375 L 10.671875 12.863281 L 10.210938 13.210938 L 11.191406 17.109375 M 15.839844 4.730469 L 15.757812 3.585938 L 16.671875 4.628906 L 17.957031 4.125 L 17.292969 5.335938 L 18.207031 6.375 L 17.082031 6.148438 L 16.859375 6.101562 L 15.957031 7.40625 L 15.816406 6.007812 L 14.445312 5.679688 L 15.855469 4.957031 L 15.839844 4.730469 M 18.011719 1.160156 L 18 1.160156 C 8.96875 1.164062 1.648438 8.488281 1.648438 17.519531 C 1.648438 26.550781 8.96875 33.875 18 33.875 L 18.011719 33.875 C 27.042969 33.875 34.363281 26.550781 34.363281 17.519531 C 34.363281 8.484375 27.042969 1.164062 18.011719 1.160156 " fill-opacity="1" fill-rule="nonzero"/><path fill="#ddb417" d="M 12.988281 11.109375 L 9.472656 11.109375 L 8.285156 7.820312 L 7.09375 11.109375 L 3.578125 11.109375 L 5.894531 12.863281 L 6.359375 13.210938 L 5.378906 17.109375 L 8.285156 15.046875 L 11.191406 17.109375 L 10.210938 13.210938 L 10.671875 12.863281 L 12.988281 11.109375 " fill-opacity="1" fill-rule="nonzero"/><path fill="#ddb417" d="M 15.816406 6.007812 L 15.957031 7.40625 L 16.859375 6.101562 L 17.082031 6.148438 L 18.207031 6.375 L 17.292969 5.335938 L 17.957031 4.125 L 16.671875 4.628906 L 15.757812 3.585938 L 15.839844 4.730469 L 15.855469 4.957031 L 14.445312 5.679688 L 15.816406 6.007812 " fill-opacity="1" fill-rule="nonzero"/><path fill="#ddb417" d="M 21.261719 8.558594 L 19.957031 9.011719 L 19.082031 7.933594 L 19.121094 9.078125 L 19.128906 9.308594 L 17.6875 9.972656 L 19.042969 10.355469 L 19.132812 11.757812 L 20.085938 10.488281 L 20.308594 10.542969 L 21.421875 10.820312 L 20.546875 9.742188 L 21.261719 8.558594 " fill-opacity="1" fill-rule="nonzero"/><path fill="#ddb417" d="M 20.039062 14.703125 L 19.625 13.378906 L 19.238281 14.457031 L 19.160156 14.675781 L 17.578125 14.765625 L 18.699219 15.617188 L 18.265625 16.953125 L 19.617188 16.125 L 19.804688 16.257812 L 20.738281 16.921875 L 20.320312 15.597656 L 21.421875 14.761719 L 20.039062 14.703125 " fill-opacity="1" fill-rule="nonzero"/><path fill="#ddb417" d="M 16.894531 19.054688 L 16.652344 17.6875 L 16.132812 18.710938 L 16.027344 18.914062 L 14.445312 18.800781 L 15.449219 19.789062 L 14.847656 21.0625 L 16.292969 20.410156 L 16.460938 20.566406 L 17.304688 21.34375 L 17.0625 19.976562 L 18.257812 19.289062 L 16.894531 19.054688 " fill-opacity="1" fill-rule="nonzero"/><path fill="#a91a1d" d="M 18.007812 33.878906 C 12.234375 33.878906 7.160156 30.886719 4.25 26.375 C 7.121094 28.863281 10.867188 30.371094 14.964844 30.371094 C 24 30.371094 31.324219 23.046875 31.324219 14.015625 C 31.324219 10.753906 30.367188 7.710938 28.722656 5.160156 C 32.179688 8.160156 34.363281 12.585938 34.363281 17.519531 C 34.363281 26.554688 27.039062 33.878906 18.007812 33.878906 " fill-opacity="1" fill-rule="nonzero"/><path fill="#f25a47" d="M 2.339844 19.808594 C 2.324219 19.808594 2.3125 19.800781 2.296875 19.789062 C 1.839844 19.332031 1.765625 11.289062 6.679688 6.375 C 10.402344 2.652344 15.917969 1.792969 18.574219 1.792969 C 19.425781 1.792969 19.984375 1.878906 20.097656 1.992188 C 20.550781 2.445312 13.265625 3.109375 8.351562 8.007812 L 8.285156 7.820312 L 8.136719 8.226562 C 7.261719 9.132812 6.527344 10.113281 5.90625 11.109375 L 3.578125 11.109375 L 5.199219 12.335938 C 3.160156 16.160156 2.667969 19.808594 2.339844 19.808594 " fill-opacity="1" fill-rule="nonzero"/><path fill="#e6c754" d="M 5.199219 12.335938 L 3.578125 11.109375 L 5.90625 11.109375 C 5.652344 11.515625 5.417969 11.925781 5.199219 12.335938 M 8.136719 8.226562 L 8.285156 7.820312 L 8.351562 8.007812 C 8.347656 8.015625 8.339844 8.019531 8.332031 8.027344 C 8.265625 8.09375 8.199219 8.160156 8.136719 8.226562 " fill-opacity="1" fill-rule="nonzero"/></svg>