<svg xmlns="http://www.w3.org/2000/svg" xmlns:xlink="http://www.w3.org/1999/xlink" width="48" zoomAndPan="magnify" viewBox="0 0 36 36.000001" height="48" preserveAspectRatio="xMidYMid meet" version="1.0"><defs><clipPath id="5c4f4569aa"><path d="M 0.488281 0 L 35.511719 0 L 35.511719 35.027344 L 0.488281 35.027344 Z M 0.488281 0 " clip-rule="nonzero"/></clipPath></defs><g clip-path="url(#5c4f4569aa)"><path fill="#353434" d="M 35.519531 17.519531 C 35.519531 27.191406 27.679688 35.035156 18.007812 35.035156 C 8.332031 35.035156 0.492188 27.191406 0.492188 17.519531 C 0.492188 7.847656 8.332031 0.00390625 18.007812 0.00390625 C 27.679688 0.00390625 35.519531 7.847656 35.519531 17.519531 " fill-opacity="1" fill-rule="nonzero"/></g><path fill="#ffffff" d="M 18.011719 1.160156 L 18 1.160156 C 8.96875 1.164062 1.648438 8.488281 1.648438 17.519531 C 1.648438 26.550781 8.96875 33.875 18 33.875 L 18.011719 33.875 C 27.042969 33.875 34.363281 26.550781 34.363281 17.519531 C 34.363281 8.484375 27.042969 1.164062 18.011719 1.160156 " fill-opacity="1" fill-rule="nonzero"/><path fill="#1f4578" d="M 24.628906 17.347656 C 24.539062 15.597656 23.09375 14.207031 21.320312 14.207031 C 19.488281 14.207031 18.007812 15.691406 18.007812 17.519531 C 18.007812 19.351562 16.523438 20.832031 14.691406 20.832031 C 12.917969 20.832031 11.472656 19.441406 11.382812 17.691406 C 11.472656 21.269531 14.402344 24.148438 18.007812 24.148438 C 21.609375 24.148438 24.539062 21.269531 24.628906 17.691406 C 24.628906 17.632812 24.632812 17.578125 24.632812 17.519531 C 24.632812 17.460938 24.628906 17.40625 24.628906 17.347656 " fill-opacity="1" fill-rule="nonzero"/><path fill="#cd1938" d="M 18.007812 10.890625 C 14.402344 10.890625 11.472656 13.769531 11.382812 17.347656 C 11.382812 17.40625 11.378906 17.460938 11.378906 17.519531 C 11.378906 17.578125 11.382812 17.632812 11.382812 17.691406 C 11.472656 19.441406 12.917969 20.832031 14.691406 20.832031 C 16.523438 20.832031 18.007812 19.351562 18.007812 17.519531 C 18.007812 15.691406 19.488281 14.207031 21.320312 14.207031 C 23.09375 14.207031 24.539062 15.597656 24.628906 17.347656 C 24.539062 13.769531 21.609375 10.890625 18.007812 10.890625 " fill-opacity="1" fill-rule="nonzero"/><path fill="#1a171a" d="M 8.140625 7.324219 L 4.457031 13.316406 L 3.792969 12.910156 L 7.480469 6.917969 L 8.140625 7.324219 " fill-opacity="1" fill-rule="nonzero"/><path fill="#1a171a" d="M 9.253906 8.007812 L 5.570312 14 L 4.90625 13.59375 L 8.589844 7.601562 L 9.253906 8.007812 " fill-opacity="1" fill-rule="nonzero"/><path fill="#1a171a" d="M 10.363281 8.691406 L 6.679688 14.683594 L 6.015625 14.277344 L 9.699219 8.285156 L 10.363281 8.691406 " fill-opacity="1" fill-rule="nonzero"/><path fill="#1a171a" d="M 25.648438 26.347656 L 26.3125 26.753906 L 28.015625 23.984375 L 27.351562 23.574219 L 25.648438 26.347656 " fill-opacity="1" fill-rule="nonzero"/><path fill="#1a171a" d="M 29.992188 20.761719 L 29.332031 20.355469 L 27.625 23.125 L 28.289062 23.535156 L 29.992188 20.761719 " fill-opacity="1" fill-rule="nonzero"/><path fill="#1a171a" d="M 31.105469 21.445312 L 30.441406 21.039062 L 28.738281 23.808594 L 29.402344 24.21875 L 31.105469 21.445312 " fill-opacity="1" fill-rule="nonzero"/><path fill="#1a171a" d="M 26.757812 27.03125 L 27.421875 27.4375 L 29.125 24.667969 L 28.460938 24.257812 L 26.757812 27.03125 " fill-opacity="1" fill-rule="nonzero"/><path fill="#1a171a" d="M 32.21875 22.128906 L 31.554688 21.722656 L 29.847656 24.492188 L 30.511719 24.902344 L 32.21875 22.128906 " fill-opacity="1" fill-rule="nonzero"/><path fill="#1a171a" d="M 27.871094 27.714844 L 28.53125 28.121094 L 30.238281 25.347656 L 29.574219 24.941406 L 27.871094 27.714844 " fill-opacity="1" fill-rule="nonzero"/><path fill="#1a171a" d="M 30.414062 9.972656 L 28.773438 7.160156 L 28.101562 7.554688 L 29.742188 10.363281 L 30.414062 9.972656 " fill-opacity="1" fill-rule="nonzero"/><path fill="#1a171a" d="M 30.679688 10.425781 L 30.003906 10.816406 L 31.648438 13.628906 L 32.316406 13.234375 L 30.679688 10.425781 " fill-opacity="1" fill-rule="nonzero"/><path fill="#1a171a" d="M 30.519531 14.285156 L 26.972656 8.210938 L 27.644531 7.820312 L 31.191406 13.894531 L 30.519531 14.285156 " fill-opacity="1" fill-rule="nonzero"/><path fill="#1a171a" d="M 28.160156 11.285156 L 26.519531 8.476562 L 25.847656 8.871094 L 27.488281 11.679688 L 28.160156 11.285156 " fill-opacity="1" fill-rule="nonzero"/><path fill="#1a171a" d="M 28.425781 11.742188 L 27.753906 12.132812 L 29.394531 14.941406 L 30.066406 14.550781 L 28.425781 11.742188 " fill-opacity="1" fill-rule="nonzero"/><path fill="#1a171a" d="M 6.617188 20.09375 L 5.945312 20.488281 L 9.492188 26.5625 L 10.164062 26.167969 L 6.617188 20.09375 " fill-opacity="1" fill-rule="nonzero"/><path fill="#1a171a" d="M 3.691406 21.804688 L 7.238281 27.878906 L 7.914062 27.484375 L 4.367188 21.410156 L 3.691406 21.804688 " fill-opacity="1" fill-rule="nonzero"/><path fill="#1a171a" d="M 7.132812 23.5625 L 5.492188 20.753906 L 4.820312 21.144531 L 6.460938 23.957031 L 7.132812 23.5625 " fill-opacity="1" fill-rule="nonzero"/><path fill="#1a171a" d="M 6.726562 24.410156 L 8.367188 27.21875 L 9.039062 26.828125 L 7.398438 24.015625 L 6.726562 24.410156 " fill-opacity="1" fill-rule="nonzero"/><path fill="#282b2c" d="M 18 33.878906 L 17.988281 33.878906 L 18 33.878906 M 18.019531 33.878906 L 18.019531 33.878906 M 17.984375 33.878906 L 17.976562 33.878906 L 17.984375 33.878906 M 18.03125 33.878906 L 18.03125 33.878906 M 17.972656 33.878906 L 17.960938 33.878906 L 17.972656 33.878906 M 18.042969 33.878906 L 18.046875 33.878906 L 18.042969 33.878906 M 17.960938 33.878906 L 17.949219 33.878906 L 17.960938 33.878906 M 18.058594 33.878906 L 18.058594 33.878906 M 17.949219 33.878906 C 16.570312 33.871094 15.230469 33.695312 13.949219 33.371094 C 15.230469 33.695312 16.570312 33.871094 17.949219 33.878906 M 18.070312 33.878906 L 18.074219 33.878906 L 18.070312 33.878906 M 18.082031 33.878906 L 18.085938 33.878906 L 18.082031 33.878906 M 18.097656 33.878906 L 18.097656 33.878906 M 18.109375 33.878906 L 18.113281 33.878906 L 18.109375 33.878906 M 18.125 33.878906 L 18.125 33.878906 M 18.136719 33.878906 L 18.140625 33.878906 L 18.136719 33.878906 M 18.148438 33.878906 L 18.152344 33.878906 L 18.148438 33.878906 M 18.164062 33.878906 L 18.164062 33.878906 M 18.175781 33.878906 L 18.179688 33.878906 L 18.175781 33.878906 M 18.191406 33.875 L 18.191406 33.875 M 18.203125 33.875 L 18.203125 33.875 M 18.230469 33.875 L 18.230469 33.875 M 18.242188 33.875 L 18.242188 33.875 M 13.949219 33.371094 C 13.945312 33.371094 13.941406 33.371094 13.9375 33.367188 C 13.945312 33.371094 13.945312 33.371094 13.949219 33.371094 M 13.9375 33.367188 C 13.933594 33.367188 13.933594 33.367188 13.929688 33.363281 C 13.933594 33.367188 13.933594 33.367188 13.9375 33.367188 M 13.925781 33.363281 C 13.921875 33.363281 13.917969 33.363281 13.917969 33.363281 C 13.917969 33.363281 13.921875 33.363281 13.925781 33.363281 M 13.910156 33.359375 C 13.910156 33.359375 13.910156 33.359375 13.90625 33.359375 C 13.90625 33.359375 13.910156 33.359375 13.910156 33.359375 M 13.894531 33.355469 L 13.894531 33.355469 M 13.886719 33.355469 L 13.882812 33.355469 L 13.886719 33.355469 " fill-opacity="1" fill-rule="nonzero"/><path fill="#b0c0c8" d="M 18.007812 33.878906 L 17.949219 33.878906 C 16.570312 33.871094 15.230469 33.695312 13.949219 33.371094 C 13.945312 33.371094 13.945312 33.371094 13.9375 33.367188 C 13.933594 33.367188 13.933594 33.367188 13.929688 33.363281 L 13.925781 33.363281 C 13.921875 33.363281 13.917969 33.363281 13.917969 33.363281 C 13.914062 33.359375 13.914062 33.359375 13.910156 33.359375 C 13.910156 33.359375 13.90625 33.359375 13.90625 33.359375 C 13.902344 33.359375 13.898438 33.359375 13.894531 33.355469 C 13.890625 33.355469 13.886719 33.355469 13.886719 33.355469 L 13.882812 33.355469 C 9.863281 32.308594 6.441406 29.773438 4.25 26.375 C 7.121094 28.863281 10.867188 30.371094 14.964844 30.371094 C 19.066406 30.371094 22.8125 28.863281 25.6875 26.371094 L 26.3125 26.753906 L 28.015625 23.984375 L 27.960938 23.949219 C 28.070312 23.8125 28.171875 23.667969 28.277344 23.527344 L 28.289062 23.535156 L 28.433594 23.300781 C 28.765625 22.824219 29.066406 22.328125 29.347656 21.816406 L 29.992188 20.761719 L 29.898438 20.703125 C 30.8125 18.660156 31.324219 16.398438 31.324219 14.015625 C 31.324219 13.683594 31.3125 13.351562 31.292969 13.023438 L 31.648438 13.628906 L 32.316406 13.234375 L 31.0625 11.082031 C 30.671875 8.933594 29.863281 6.929688 28.722656 5.160156 C 32.179688 8.160156 34.363281 12.585938 34.363281 17.519531 C 34.363281 26.464844 27.183594 33.734375 18.269531 33.875 L 18.191406 33.875 C 18.1875 33.875 18.179688 33.875 18.179688 33.878906 L 18.007812 33.878906 M 29.574219 24.941406 L 27.871094 27.714844 L 28.53125 28.121094 L 30.238281 25.347656 L 29.574219 24.941406 M 28.460938 24.257812 L 26.757812 27.03125 L 27.421875 27.4375 L 29.125 24.667969 L 28.460938 24.257812 M 31.554688 21.722656 L 29.847656 24.492188 L 30.511719 24.902344 L 32.21875 22.128906 L 31.554688 21.722656 M 30.441406 21.039062 L 28.738281 23.808594 L 29.402344 24.21875 L 31.105469 21.445312 L 30.441406 21.039062 " fill-opacity="1" fill-rule="nonzero"/><path fill="#141215" d="M 26.3125 26.753906 L 25.6875 26.371094 C 26.523438 25.644531 27.285156 24.832031 27.960938 23.949219 L 28.015625 23.984375 L 26.3125 26.753906 " fill-opacity="1" fill-rule="nonzero"/><path fill="#141215" d="M 28.289062 23.535156 L 28.277344 23.527344 C 28.328125 23.449219 28.382812 23.375 28.433594 23.300781 L 28.289062 23.535156 M 29.347656 21.816406 C 29.542969 21.453125 29.726562 21.082031 29.898438 20.703125 L 29.992188 20.761719 L 29.347656 21.816406 " fill-opacity="1" fill-rule="nonzero"/><path fill="#141215" d="M 29.402344 24.21875 L 28.738281 23.808594 L 30.441406 21.039062 L 31.105469 21.445312 L 29.402344 24.21875 " fill-opacity="1" fill-rule="nonzero"/><path fill="#141215" d="M 27.421875 27.4375 L 26.757812 27.03125 L 28.460938 24.257812 L 29.125 24.667969 L 27.421875 27.4375 " fill-opacity="1" fill-rule="nonzero"/><path fill="#141215" d="M 30.511719 24.902344 L 29.847656 24.492188 L 31.554688 21.722656 L 32.21875 22.128906 L 30.511719 24.902344 " fill-opacity="1" fill-rule="nonzero"/><path fill="#141215" d="M 28.53125 28.121094 L 27.871094 27.714844 L 29.574219 24.941406 L 30.238281 25.347656 L 28.53125 28.121094 " fill-opacity="1" fill-rule="nonzero"/><path fill="#141215" d="M 31.648438 13.628906 L 31.292969 13.023438 C 31.253906 12.367188 31.175781 11.71875 31.0625 11.082031 L 32.316406 13.234375 L 31.648438 13.628906 " fill-opacity="1" fill-rule="nonzero"/><path fill="#ffffff" d="M 2.339844 19.808594 C 2.324219 19.808594 2.3125 19.800781 2.296875 19.789062 C 1.839844 19.332031 1.765625 11.289062 6.679688 6.375 C 10.402344 2.652344 15.917969 1.792969 18.574219 1.792969 C 19.429688 1.792969 19.984375 1.878906 20.097656 1.992188 C 20.542969 2.4375 13.605469 3.078125 8.703125 7.667969 L 8.589844 7.601562 L 8.320312 8.039062 C 3.5625 12.804688 2.796875 19.808594 2.339844 19.808594 M 7.480469 6.917969 L 3.792969 12.910156 L 4.457031 13.316406 L 8.140625 7.324219 L 7.480469 6.917969 " fill-opacity="1" fill-rule="nonzero"/><path fill="#453d43" d="M 4.457031 13.316406 L 3.792969 12.910156 L 7.480469 6.917969 L 8.140625 7.324219 L 4.457031 13.316406 " fill-opacity="1" fill-rule="nonzero"/><path fill="#453d43" d="M 8.320312 8.039062 L 8.589844 7.601562 L 8.703125 7.667969 C 8.578125 7.785156 8.453125 7.90625 8.332031 8.027344 C 8.328125 8.03125 8.324219 8.035156 8.320312 8.039062 " fill-opacity="1" fill-rule="nonzero"/></svg>