<svg xmlns="http://www.w3.org/2000/svg" xmlns:xlink="http://www.w3.org/1999/xlink" width="48" zoomAndPan="magnify" viewBox="0 0 36 36.000001" height="48" preserveAspectRatio="xMidYMid meet" version="1.0"><defs><clipPath id="0ca745d6a0"><path d="M 1.011719 0 L 35.308594 0 L 35.308594 35 L 1.011719 35 Z M 1.011719 0 " clip-rule="nonzero"/></clipPath></defs><g clip-path="url(#0ca745d6a0)"><path fill="#ffffff" d="M 30.9375 7.59375 L 30.9375 6.109375 C 30.9375 2.765625 28.1875 0.0429688 24.808594 0.0429688 L 11.511719 0.0429688 C 8.132812 0.0429688 5.386719 2.765625 5.386719 6.109375 L 5.386719 7.59375 C 2.886719 8.152344 1.011719 10.371094 1.011719 13.011719 L 1.011719 13.234375 L 3.671875 29.695312 C 3.808594 32.632812 6.269531 34.984375 9.269531 34.984375 L 27.199219 34.984375 C 30.207031 34.984375 32.671875 32.628906 32.800781 29.679688 L 35.308594 13.222656 L 35.308594 13.011719 C 35.308594 10.371094 33.4375 8.152344 30.9375 7.59375 Z M 30.9375 7.59375 " fill-opacity="1" fill-rule="nonzero"/></g><path fill="#e94e30" d="M 29.703125 10.273438 L 28.09375 10.273438 L 28.09375 6.109375 C 28.09375 4.316406 26.621094 2.859375 24.808594 2.859375 L 11.511719 2.859375 C 9.699219 2.859375 8.230469 4.316406 8.230469 6.109375 L 8.230469 10.273438 L 6.621094 10.273438 C 5.09375 10.273438 3.855469 11.5 3.855469 13.011719 L 6.507812 29.433594 C 6.507812 30.941406 7.746094 32.167969 9.269531 32.167969 L 27.199219 32.167969 C 28.726562 32.167969 29.960938 30.941406 29.960938 29.433594 L 32.464844 13.011719 C 32.464844 11.5 31.226562 10.273438 29.703125 10.273438 Z M 11.710938 8.417969 C 11.710938 7.253906 12.667969 6.308594 13.84375 6.308594 L 22.476562 6.308594 C 23.65625 6.308594 24.609375 7.253906 24.609375 8.417969 L 24.609375 10.273438 L 11.714844 10.273438 L 11.714844 8.417969 Z M 11.710938 8.417969 " fill-opacity="1" fill-rule="nonzero"/></svg>