<svg xmlns="http://www.w3.org/2000/svg" xmlns:xlink="http://www.w3.org/1999/xlink" width="48" zoomAndPan="magnify" viewBox="0 0 36 36.000001" height="48" preserveAspectRatio="xMidYMid meet" version="1.0"><defs><clipPath id="40db3254f7"><path d="M 0.488281 0 L 35.511719 0 L 35.511719 35.027344 L 0.488281 35.027344 Z M 0.488281 0 " clip-rule="nonzero"/></clipPath></defs><g clip-path="url(#40db3254f7)"><path fill="#ffffff" d="M 35.515625 17.511719 C 35.515625 27.1875 27.671875 35.027344 18 35.027344 C 8.328125 35.027344 0.484375 27.1875 0.484375 17.511719 C 0.484375 7.839844 8.328125 0 18 0 C 27.671875 0 35.515625 7.839844 35.515625 17.511719 " fill-opacity="1" fill-rule="nonzero"/></g><path fill="#05b362" d="M 21.675781 16.625 C 21.867188 16.617188 22.058594 16.617188 22.253906 16.628906 C 22.363281 16.636719 22.453125 16.507812 22.425781 16.335938 C 22.253906 15.023438 21.066406 13.835938 19.75 13.664062 C 19.582031 13.636719 19.453125 13.722656 19.460938 13.832031 C 19.46875 14.027344 19.472656 14.222656 19.464844 14.414062 C 19.460938 14.523438 19.550781 14.613281 19.664062 14.632812 C 20.546875 14.769531 21.316406 15.542969 21.453125 16.425781 C 21.472656 16.539062 21.566406 16.625 21.675781 16.625 Z M 24.246094 16.769531 C 24.4375 16.769531 24.632812 16.769531 24.824219 16.777344 C 24.933594 16.78125 25.019531 16.671875 25.011719 16.53125 C 24.871094 13.773438 22.316406 11.21875 19.554688 11.078125 C 19.414062 11.066406 19.308594 11.152344 19.3125 11.261719 C 19.316406 11.457031 19.320312 11.648438 19.316406 11.839844 C 19.316406 11.949219 19.40625 12.039062 19.523438 12.046875 C 21.816406 12.191406 23.898438 14.269531 24.039062 16.566406 C 24.046875 16.679688 24.140625 16.769531 24.246094 16.769531 Z M 26.523438 16.566406 C 26.710938 16.597656 26.902344 16.632812 27.09375 16.671875 C 27.203125 16.695312 27.304688 16.601562 27.3125 16.464844 C 27.484375 14.507812 26.671875 12.367188 25.183594 10.902344 C 23.71875 9.414062 21.582031 8.601562 19.625 8.773438 C 19.484375 8.785156 19.394531 8.886719 19.417969 8.992188 C 19.457031 9.183594 19.488281 9.375 19.519531 9.566406 C 19.539062 9.671875 19.644531 9.75 19.761719 9.742188 C 23.242188 9.375 26.714844 12.847656 26.34375 16.324219 C 26.335938 16.441406 26.414062 16.550781 26.523438 16.566406 Z M 14.101562 9.03125 L 16.132812 11.476562 C 17.691406 13.039062 14.171875 15.820312 14.164062 15.828125 C 13.945312 16.042969 15.339844 17.785156 16.765625 19.210938 C 18.1875 20.636719 19.933594 22.027344 20.148438 21.8125 C 20.15625 21.804688 22.9375 18.28125 24.5 19.84375 L 26.945312 21.875 C 28.851562 24.066406 23.664062 30.902344 14.507812 21.746094 C 14.460938 21.699219 14.414062 21.652344 14.367188 21.605469 C 14.324219 21.558594 14.277344 21.515625 14.230469 21.46875 C 5.074219 12.3125 11.910156 7.125 14.101562 9.03125 " fill-opacity="1" fill-rule="nonzero"/></svg>